<svg width="60" height="60" viewBox="0 0 60 60" fill="none" xmlns="http://www.w3.org/2000/svg">
<g id="Icon">
<path id="Vector" d="M59.0002 43.4L57.2005 41.8V34.8C57.2005 33.6 56.7673 32.5666 55.9008 31.7C55.0342 30.8333 54.0344 30.4 52.9013 30.4C51.7681 30.4 50.8016 30.7333 50.0017 31.4C49.2019 32.0666 48.6686 32.9333 48.402 34L46.8023 32.6C46.0024 31.8 45.0026 31.4 43.8028 31.4C42.603 31.4 41.5365 31.8 40.6033 32.6L28.4053 43.4C28.1387 43.6666 28.0054 44 28.0054 44.4C28.0054 44.8 28.1054 45.1333 28.3054 45.4C28.5053 45.6666 28.8053 45.8 29.2052 45.8C29.6051 45.8 29.9384 45.7333 30.205 45.6V55.4C30.205 56.6 30.605 57.6 31.4048 58.4C32.2047 59.2 33.1379 59.6 34.2044 59.6H53.2012C54.401 59.6 55.3675 59.2 56.1007 58.4C56.8339 57.6 57.2005 56.6 57.2005 55.4V45.6C57.6005 45.7333 57.9671 45.8 58.3004 45.8C58.6336 45.8 58.9336 45.6333 59.2002 45.3C59.4668 44.9666 59.5668 44.6333 59.5002 44.3C59.4335 43.9666 59.2669 43.6666 59.0002 43.4ZM46.2024 56.8H41.6031V53.4C41.6031 52.8666 41.8031 52.4 42.203 52C42.603 51.6 43.0696 51.4 43.6028 51.4H44.2027C44.736 51.4 45.2025 51.6 45.6025 52C46.0024 52.4 46.2024 52.8666 46.2024 53.4V56.8ZM54.401 55.4C54.401 55.8 54.301 56.1333 54.1011 56.4C53.9011 56.6666 53.6011 56.8 53.2012 56.8H49.0019V53.4C49.0019 52.0666 48.5353 50.9333 47.6021 50C46.669 49.0666 45.5358 48.6 44.2027 48.6H43.6028C42.2697 48.6 41.1365 49.0666 40.2034 50C39.2702 50.9333 38.8036 52.0666 38.8036 53.4V56.8H34.2044C33.9377 56.8 33.6711 56.6666 33.4045 56.4C33.1379 56.1333 33.0046 55.8 33.0046 55.4V43L42.403 34.8C42.8029 34.4 43.2362 34.2 43.7028 34.2C44.1694 34.2 44.6026 34.4 45.0026 34.8L54.401 43V55.4ZM54.401 34.8V39.4L51.2015 36.4V34.8C51.2015 34.4 51.3349 34.0333 51.6015 33.7C51.8681 33.3666 52.2347 33.1666 52.7013 33.1C53.1679 33.0333 53.5678 33.1666 53.9011 33.5C54.2344 33.8333 54.401 34.2666 54.401 34.8ZM43.8028 37.6C42.603 37.6 41.6031 38.0333 40.8033 38.9C40.0034 39.7666 39.6035 40.7666 39.6035 41.9C39.6035 43.0333 40.0034 44 40.8033 44.8C41.6031 45.6 42.5696 46 43.7028 46C44.8359 46 45.8358 45.6 46.7023 44.8C47.5688 44 48.0021 43.0333 48.0021 41.9C48.0021 40.7666 47.5688 39.7666 46.7023 38.9C45.8358 38.0333 44.8693 37.6 43.8028 37.6ZM45.0026 41.8C45.0026 42.2 44.9026 42.5333 44.7026 42.8C44.5027 43.0666 44.2027 43.2 43.8028 43.2C43.4028 43.2 43.0696 43.0666 42.8029 42.8C42.5363 42.5333 42.403 42.2 42.403 41.8C42.403 41.4 42.5363 41.0666 42.8029 40.8C43.0696 40.5333 43.4028 40.4 43.8028 40.4C44.2027 40.4 44.5027 40.5333 44.7026 40.8C44.9026 41.0666 45.0026 41.4 45.0026 41.8ZM25.6058 56.6H7.80877C6.60897 56.6 5.54248 56.1666 4.6093 55.3C3.67613 54.4333 3.20954 53.4 3.20954 52.2V7.79998C3.20954 6.59998 3.67613 5.53331 4.6093 4.59998C5.54248 3.66664 6.60897 3.19997 7.80877 3.19997H48.402C49.7351 3.19997 50.8349 3.66664 51.7015 4.59998C52.568 5.53331 53.0012 6.59998 53.0012 7.79998V25.6C53.0012 26 53.1345 26.3333 53.4012 26.6C53.6678 26.8666 54.0011 27 54.401 27C54.8009 27 55.1342 26.8666 55.4008 26.6C55.6675 26.3333 55.8008 26 55.8008 25.6V7.79998C55.8008 5.79998 55.0676 4.06664 53.6011 2.59998C52.1347 1.13331 50.4017 0.399975 48.402 0.399975H7.80877C5.8091 0.399975 4.07606 1.13331 2.60964 2.59998C1.14321 4.06664 0.410004 5.79998 0.410004 7.79998V52.2C0.410004 54.2 1.14321 55.9333 2.60964 57.4C4.07606 58.8666 5.8091 59.6 7.80877 59.6H25.6058C26.0057 59.6 26.3723 59.4333 26.7056 59.1C27.0389 58.7666 27.2055 58.4333 27.2055 58.1C27.2055 57.7666 27.0389 57.4333 26.7056 57.1C26.3723 56.7666 26.0057 56.6 25.6058 56.6ZM43.0029 14.6C43.0029 14.2 42.8696 13.8666 42.603 13.6C42.3363 13.3333 42.0031 13.2 41.6031 13.2H13.8078C13.4078 13.2 13.0746 13.3333 12.8079 13.6C12.5413 13.8666 12.408 14.2 12.408 14.6C12.408 15 12.5413 15.3333 12.8079 15.6C13.0746 15.8666 13.4078 16 13.8078 16H41.6031C42.0031 16 42.3363 15.8666 42.603 15.6C42.8696 15.3333 43.0029 15 43.0029 14.6ZM36.204 25.4C36.204 25.1333 36.0707 24.8333 35.8041 24.5C35.5375 24.1666 35.2042 24 34.8043 24H13.8078C13.4078 24 13.0746 24.1666 12.8079 24.5C12.5413 24.8333 12.408 25.1666 12.408 25.5C12.408 25.8333 12.5413 26.1666 12.8079 26.5C13.0746 26.8333 13.4078 27 13.8078 27H34.8043C35.2042 27 35.5375 26.8333 35.8041 26.5C36.0707 26.1666 36.204 25.8 36.204 25.4ZM13.8078 35C13.4078 35 13.0746 35.1333 12.8079 35.4C12.5413 35.6666 12.408 36 12.408 36.4C12.408 36.8 12.5413 37.1333 12.8079 37.4C13.0746 37.6666 13.4078 37.8 13.8078 37.8H22.4063C22.673 37.8 22.9729 37.6666 23.3062 37.4C23.6395 37.1333 23.8061 36.8 23.8061 36.4C23.8061 36 23.6395 35.6666 23.3062 35.4C22.9729 35.1333 22.673 35 22.4063 35H13.8078Z" fill="#1A1A1A"/>
</g>
</svg>
